# xmcd CD database file
#
# Track frame offsets:
#	182
#	22325
#	39192
#	54227
#	66052
#	83607
#	98455
#	122587
#	138557
#	149415
#	162487
#	177567
#	195002
#	212972
#	229970
#
# Disc length: 3429 seconds
#
# Revision: 0
# Processed by: cddbd v1.5.2PL0 Copyright (c) Steve Scherf et al.
# Submitted via: CDex 1.50
#
DISCID=cc0d630f
DTITLE=Various Artist -  - The Judds - Vol. - 01
DYEAR=1994
DGENRE=Country
TTITLE0=Born To Be Blue
TTITLE1=Give A Little Love 
TTITLE2=Mama,He's Crazy
TTITLE3=Don't Be Cruel
TTITLE4=River Of Time
TTITLE5=Had A Dream ( For The Heart )
TTITLE6=Rompin',Stomplin',Bad Never Blues
TTITLE7=Guardian Angel
TTITLE8=The Sweetest Gift ( A Mothers Smile 
TTITLE9=Rockin' With The Rhythm
TTITLE10=Maybe Your Baby's Got The Blues
TTITLE11=Have Mercy
TTITLE12=Let Me Tell You About Love
TTITLE13=Love Is Alive
TTITLE14=Medley - Had S Dream,u.v.a.m.
EXTD=YEAR: 1994
EXTT0=
EXTT1=
EXTT2=
EXTT3=
EXTT4=
EXTT5=
EXTT6=
EXTT7=
EXTT8=
EXTT9=
EXTT10=
EXTT11=
EXTT12=
EXTT13=
EXTT14=
PLAYORDER=
